<svg width="441" height="440" viewBox="0 0 441 440" fill="none" xmlns="http://www.w3.org/2000/svg">
<mask id="path-1-inside-1_1_2910" fill="white">
<path fill-rule="evenodd" clip-rule="evenodd" d="M0.5 219.998C0.5 192.078 5.70096 165.373 15.1869 140.799C15.848 139.086 16.5299 137.384 17.2323 135.692C27.3064 111.431 41.5977 89.3614 59.1916 70.3994C69.5627 59.2219 81.0813 49.124 93.5602 40.2933C120.121 21.4976 151.031 8.44207 184.485 2.93331C196.203 1.00365 208.233 0 220.498 0C232.763 0 244.794 1.00365 256.512 2.93331C289.966 8.44207 320.876 21.4976 347.436 40.2933C359.915 49.124 371.434 59.2219 381.805 70.3994C399.399 89.3614 413.69 111.431 423.764 135.692C424.467 137.384 425.149 139.086 425.81 140.799C435.296 165.373 440.497 192.078 440.497 219.998C440.497 247.918 435.296 274.623 425.81 299.198H347.436C352.426 291.218 356.683 282.734 360.116 273.839C366.562 257.133 370.097 238.978 370.097 219.998C370.097 190.913 361.797 163.767 347.436 140.799L347.285 140.558C320.824 98.4146 273.933 70.3994 220.498 70.3994C167.064 70.3994 120.172 98.4146 93.711 140.558L93.5602 140.799C79.1995 163.767 70.8994 190.913 70.8994 219.998C70.8994 238.978 74.434 257.133 80.8809 273.839C84.3131 282.734 88.5709 291.218 93.5602 299.198H15.1869C5.70096 274.623 0.5 247.918 0.5 219.998ZM93.5562 399.708C81.0773 390.877 69.5586 380.779 59.1875 369.602H381.801C371.43 380.779 359.911 390.877 347.432 399.708C311.568 425.087 267.773 440.001 220.494 440.001C173.216 440.001 129.42 425.087 93.5562 399.708Z"/>
</mask>
<path d="M15.1869 140.799L17.0527 141.519L17.0527 141.519L15.1869 140.799ZM17.2323 135.692L15.3852 134.925L15.3852 134.925L17.2323 135.692ZM59.1916 70.3994L57.7254 69.0391L57.7254 69.0391L59.1916 70.3994ZM93.5602 40.2933L92.4049 38.6607L92.4049 38.6607L93.5602 40.2933ZM184.485 2.93331L184.809 4.90673L184.809 4.90673L184.485 2.93331ZM256.512 2.93331L256.187 4.90673L256.187 4.90673L256.512 2.93331ZM347.436 40.2933L348.592 38.6607L348.592 38.6607L347.436 40.2933ZM381.805 70.3994L383.271 69.0391L383.271 69.0391L381.805 70.3994ZM423.764 135.692L425.611 134.925L425.611 134.925L423.764 135.692ZM425.81 140.799L427.675 140.079L427.675 140.079L425.81 140.799ZM425.81 299.198V301.198H427.181L427.675 299.918L425.81 299.198ZM347.436 299.198L345.74 298.137L343.827 301.198H347.436V299.198ZM360.116 273.839L358.25 273.119L358.25 273.119L360.116 273.839ZM347.436 140.799L349.132 139.739L349.131 139.737L347.436 140.799ZM347.285 140.558L348.98 139.496L348.979 139.495L347.285 140.558ZM93.711 140.558L92.0172 139.495L92.0162 139.496L93.711 140.558ZM93.5602 140.799L91.8654 139.737L91.8644 139.739L93.5602 140.799ZM80.8809 273.839L82.7468 273.119L82.7468 273.119L80.8809 273.839ZM93.5602 299.198V301.198H97.1694L95.256 298.137L93.5602 299.198ZM15.1869 299.198L13.3211 299.918L13.8151 301.198H15.1869V299.198ZM59.1875 369.602V367.602H54.6035L57.7214 370.962L59.1875 369.602ZM93.5562 399.708L94.7115 398.075L94.7115 398.075L93.5562 399.708ZM381.801 369.602L383.267 370.962L386.385 367.602H381.801V369.602ZM347.432 399.708L348.588 401.34L348.588 401.34L347.432 399.708ZM13.3211 140.079C3.74785 164.879 -1.5 191.828 -1.5 219.998H2.5C2.5 192.329 7.65406 165.867 17.0527 141.519L13.3211 140.079ZM15.3852 134.925C14.6763 136.633 13.9882 138.35 13.3211 140.079L17.0527 141.519C17.7077 139.822 18.3834 138.135 19.0794 136.459L15.3852 134.925ZM57.7254 69.0391C39.9728 88.1721 25.5514 110.442 15.3852 134.925L19.0794 136.459C29.0613 112.42 43.2226 90.5506 60.6577 71.7598L57.7254 69.0391ZM92.4049 38.6607C79.813 47.5715 68.1902 57.7606 57.7254 69.0391L60.6577 71.7598C70.9351 60.6831 82.3497 50.6766 94.7155 41.9258L92.4049 38.6607ZM184.16 0.959884C150.399 6.51913 119.206 19.6945 92.4049 38.6607L94.7155 41.9258C121.035 23.3007 151.662 10.365 184.809 4.90673L184.16 0.959884ZM220.498 -2C208.124 -2 195.985 -0.98739 184.16 0.959884L184.809 4.90673C196.421 2.99469 208.343 2 220.498 2V-2ZM256.837 0.959884C245.012 -0.98739 232.872 -2 220.498 -2V2C232.654 2 244.576 2.99469 256.187 4.90673L256.837 0.959884ZM348.592 38.6607C321.79 19.6945 290.597 6.51913 256.837 0.959884L256.187 4.90673C289.334 10.365 319.962 23.3007 346.281 41.9258L348.592 38.6607ZM383.271 69.0391C372.806 57.7606 361.184 47.5715 348.592 38.6607L346.281 41.9258C358.647 50.6766 370.061 60.6831 380.339 71.7598L383.271 69.0391ZM425.611 134.925C415.445 110.442 401.024 88.1721 383.271 69.0391L380.339 71.7598C397.774 90.5506 411.935 112.42 421.917 136.459L425.611 134.925ZM427.675 140.079C427.008 138.35 426.32 136.633 425.611 134.925L421.917 136.459C422.613 138.135 423.289 139.822 423.944 141.519L427.675 140.079ZM442.497 219.998C442.497 191.828 437.249 164.879 427.675 140.079L423.944 141.519C433.342 165.867 438.497 192.329 438.497 219.998H442.497ZM427.675 299.918C437.249 275.117 442.497 248.168 442.497 219.998H438.497C438.497 247.668 433.342 274.129 423.944 298.477L427.675 299.918ZM347.436 301.198H425.81V297.198H347.436V301.198ZM358.25 273.119C354.864 281.894 350.663 290.264 345.74 298.137L349.132 300.258C354.188 292.171 358.503 283.573 361.982 274.559L358.25 273.119ZM368.097 219.998C368.097 238.728 364.609 256.639 358.25 273.119L361.982 274.559C368.516 257.627 372.097 239.228 372.097 219.998H368.097ZM345.74 141.859C359.908 164.519 368.097 191.299 368.097 219.998H372.097C372.097 190.528 363.686 163.015 349.132 139.739L345.74 141.859ZM345.591 141.62L345.742 141.861L349.131 139.737L348.98 139.496L345.591 141.62ZM220.498 72.3994C273.216 72.3994 319.481 100.036 345.592 141.622L348.979 139.495C322.168 96.7929 274.649 68.3994 220.498 68.3994V72.3994ZM95.4048 141.622C121.516 100.036 167.78 72.3994 220.498 72.3994V68.3994C166.347 68.3994 118.829 96.7929 92.0172 139.495L95.4048 141.622ZM95.255 141.861L95.4058 141.62L92.0162 139.496L91.8654 139.737L95.255 141.861ZM72.8994 219.998C72.8994 191.299 81.0883 164.519 95.256 141.859L91.8644 139.739C77.3107 163.015 68.8994 190.528 68.8994 219.998H72.8994ZM82.7468 273.119C76.3872 256.639 72.8994 238.728 72.8994 219.998H68.8994C68.8994 239.228 72.4809 257.627 79.015 274.559L82.7468 273.119ZM95.256 298.137C90.3334 290.264 86.1328 281.894 82.7468 273.119L79.015 274.559C82.4935 283.573 86.8084 292.171 91.8644 300.258L95.256 298.137ZM15.1869 301.198H93.5602V297.198H15.1869V301.198ZM-1.5 219.998C-1.5 248.168 3.74785 275.117 13.3211 299.918L17.0527 298.477C7.65406 274.129 2.5 247.668 2.5 219.998H-1.5ZM57.7214 370.962C68.1862 382.24 79.8089 392.43 92.4009 401.34L94.7115 398.075C82.3457 389.324 70.9311 379.318 60.6536 368.241L57.7214 370.962ZM381.801 367.602H59.1875V371.602H381.801V367.602ZM348.588 401.34C361.179 392.43 372.802 382.24 383.267 370.962L380.335 368.241C370.057 379.318 358.643 389.324 346.277 398.075L348.588 401.34ZM220.494 442.001C268.2 442.001 312.397 426.951 348.588 401.34L346.277 398.075C310.74 423.224 267.346 438.001 220.494 438.001V442.001ZM92.4009 401.34C128.592 426.951 172.788 442.001 220.494 442.001V438.001C173.643 438.001 130.249 423.224 94.7115 398.075L92.4009 401.34Z" fill="url(#paint0_radial_1_2910)" fill-opacity="0.2" mask="url(#path-1-inside-1_1_2910)"/>
<defs>
<radialGradient id="paint0_radial_1_2910" cx="0" cy="0" r="1" gradientUnits="userSpaceOnUse" gradientTransform="translate(363.975 25.2795) rotate(132.952) scale(473.272 473.272)">
<stop stop-color="#665F82"/>
<stop offset="1" stop-color="#665F82" stop-opacity="0"/>
</radialGradient>
</defs>
</svg>
