<svg width="293" height="49" viewBox="0 0 293 49" fill="none" xmlns="http://www.w3.org/2000/svg">
<g clip-path="url(#clip0_1_4245)">
<path fill-rule="evenodd" clip-rule="evenodd" d="M70.875 40.0245H76.6717V8.5293H70.875V40.0245Z" fill="white"/>
<path fill-rule="evenodd" clip-rule="evenodd" d="M90.0252 23.9406C88.3935 23.9406 87.069 24.4801 86.0525 25.5574C85.0369 26.6355 84.5291 28.0003 84.5291 29.6518C84.5291 31.3041 85.0369 32.6543 86.0525 33.7041C87.069 34.754 88.3935 35.2789 90.0252 35.2789C90.7972 35.2789 91.5206 35.1392 92.1936 34.859C92.8657 34.5787 93.4454 34.1871 93.9326 33.6831C94.419 33.1792 94.8054 32.5849 95.092 31.8984C95.3776 31.2128 95.5214 30.4642 95.5214 29.6518C95.5214 28.8402 95.3776 28.0843 95.092 27.3841C94.8054 26.6848 94.419 26.0823 93.9326 25.5784C93.4454 25.0744 92.8657 24.6755 92.1936 24.3815C91.5206 24.0876 90.7972 23.9406 90.0252 23.9406ZM90.0252 18.7754C91.599 18.7754 93.0804 19.0557 94.4694 19.6153C95.8574 20.1758 97.0672 20.9381 98.0977 21.9039C99.1282 22.8698 99.944 24.0109 100.545 25.3264C101.146 26.6428 101.447 28.0706 101.447 29.6098C101.447 31.1498 101.146 32.5849 100.545 33.9141C99.944 35.2442 99.1282 36.3917 98.0977 37.3576C97.0672 38.3234 95.8574 39.0866 94.4694 39.6462C93.0804 40.2059 91.599 40.4861 90.0252 40.4861C88.4505 40.4861 86.9691 40.2059 85.5811 39.6462C84.1921 39.0866 82.9833 38.3234 81.9528 37.3576C80.9222 36.3917 80.1129 35.2442 79.5267 33.9141C78.9396 32.5849 78.6465 31.1498 78.6465 29.6098C78.6465 28.0706 78.9396 26.6428 79.5267 25.3264C80.1129 24.0109 80.9222 22.8698 81.9528 21.9039C82.9833 20.9381 84.1846 20.1758 85.5596 19.6153C86.9336 19.0557 88.4225 18.7754 90.0252 18.7754Z" fill="white"/>
<path fill-rule="evenodd" clip-rule="evenodd" d="M111.188 40.5106C110.609 40.5106 110.087 40.1874 109.835 39.6807L99.6787 19.2207H105.821L111.151 30.9789L116.555 19.2207H122.651L112.542 39.678C112.29 40.1865 111.767 40.5106 111.188 40.5106Z" fill="white"/>
<path fill-rule="evenodd" clip-rule="evenodd" d="M131.933 23.3527C130.672 23.3527 129.584 23.7243 128.669 24.4655C127.752 25.2077 127.123 26.2366 126.779 27.5521H136.527C136.468 26.2083 135.996 25.173 135.109 24.4445C134.222 23.7169 133.162 23.3527 131.933 23.3527ZM132.146 18.7754C133.635 18.7754 134.994 19.0274 136.226 19.5313C137.457 20.0352 138.509 20.7217 139.382 21.589C140.255 22.4571 140.928 23.4787 141.4 24.6545C141.872 25.8303 142.108 27.0901 142.108 28.4339C142.108 29.0218 142.065 29.5961 141.979 30.1557C141.894 30.7162 141.808 31.1781 141.722 31.5415H126.779C127.152 32.8853 127.867 33.9077 128.926 34.607C129.986 35.3072 131.288 35.6568 132.834 35.6568C133.978 35.6568 135.03 35.4679 135.989 35.0899C136.949 34.712 137.871 34.2008 138.759 33.5572L141.122 37.4206C139.918 38.401 138.616 39.1633 137.213 39.7092C135.81 40.2552 134.293 40.5281 132.662 40.5281C130.972 40.5281 129.413 40.2479 127.981 39.6882C126.55 39.1286 125.32 38.359 124.289 37.3786C123.259 36.399 122.45 35.2515 121.864 33.9351C121.276 32.6196 120.982 31.1909 120.982 29.6518C120.982 28.1117 121.269 26.6848 121.841 25.3684C122.414 24.0529 123.2 22.9054 124.204 21.9249C125.205 20.9454 126.385 20.1758 127.745 19.6153C129.105 19.0557 130.573 18.7754 132.146 18.7754Z" fill="white"/>
<path fill-rule="evenodd" clip-rule="evenodd" d="M157.908 24.0228H151.855V32.2116C151.855 33.4157 152.176 34.2556 152.821 34.7312C153.464 35.2077 154.459 35.4451 155.804 35.4451C156.148 35.4451 156.549 35.4314 157.007 35.4031C157.464 35.3748 157.979 35.3337 158.552 35.2771V40.0224C157.952 40.163 157.321 40.2807 156.663 40.3793C156.005 40.477 155.304 40.5263 154.559 40.5263C151.926 40.5263 149.85 39.8964 148.333 38.6366C146.815 37.3768 146.058 35.4031 146.058 32.7155V24.0228H142.709V19.2355H146.058V13.9863H151.855V19.2355H157.908V24.0228Z" fill="white"/>
<path fill-rule="evenodd" clip-rule="evenodd" d="M166.84 21.0014C167.556 20.3021 168.399 19.7562 169.373 19.3637C170.346 18.972 171.449 18.7757 172.679 18.7757C173.882 18.7757 174.969 18.9793 175.943 19.3847C176.915 19.7909 177.746 20.3578 178.433 21.0854C179.121 21.8139 179.649 22.6885 180.022 23.71C180.394 24.7325 180.58 25.8727 180.58 27.1325V40.0245H174.826V27.9304C174.826 26.6989 174.468 25.7184 173.754 24.9908C173.037 24.2632 172.079 23.899 170.877 23.899C169.674 23.899 168.7 24.2696 167.957 25.0118C167.212 25.7531 166.84 26.7272 166.84 27.9304V40.0245H161.043V8.5293H166.84V21.0014Z" fill="white"/>
<path fill-rule="evenodd" clip-rule="evenodd" d="M193.332 23.3527C192.072 23.3527 190.985 23.7243 190.069 24.4655C189.152 25.2077 188.523 26.2366 188.18 27.5521H197.927C197.869 26.2083 197.396 25.173 196.509 24.4445C195.622 23.7169 194.562 23.3527 193.332 23.3527ZM193.547 18.7754C195.035 18.7754 196.394 19.0274 197.626 19.5313C198.856 20.0352 199.908 20.7217 200.782 21.589C201.655 22.4571 202.328 23.4787 202.8 24.6545C203.272 25.8303 203.508 27.0901 203.508 28.4339C203.508 29.0218 203.466 29.5961 203.38 30.1557C203.294 30.7162 203.207 31.1781 203.121 31.5415H188.18C188.551 32.8853 189.267 33.9077 190.326 34.607C191.385 35.3072 192.688 35.6568 194.234 35.6568C195.378 35.6568 196.429 35.4679 197.39 35.0899C198.349 34.712 199.271 34.2008 200.159 33.5572L202.521 37.4206C201.319 38.401 200.016 39.1633 198.613 39.7092C197.21 40.2552 195.693 40.5281 194.061 40.5281C192.373 40.5281 190.813 40.2479 189.382 39.6882C187.95 39.1286 186.72 38.359 185.689 37.3786C184.659 36.399 183.849 35.2515 183.263 33.9351C182.676 32.6196 182.383 31.1909 182.383 29.6518C182.383 28.1117 182.668 26.6848 183.242 25.3684C183.814 24.0529 184.601 22.9054 185.603 21.9249C186.605 20.9454 187.786 20.1758 189.146 19.6153C190.505 19.0557 191.972 18.7754 193.547 18.7754Z" fill="white"/>
<path fill-rule="evenodd" clip-rule="evenodd" d="M213.51 18.7324C216.665 18.7324 219.204 19.7823 221.155 21.8819L218.234 25.3674C217.552 24.7229 216.796 24.2336 215.984 23.8976C215.162 23.5617 214.332 23.3937 213.473 23.3937C212.782 23.3937 212.231 23.5133 211.821 23.7507C211.401 23.9889 211.195 24.3596 211.195 24.8635C211.195 25.2834 211.373 25.6194 211.727 25.8713C212.091 26.1233 212.652 26.4036 213.426 26.7112L215.489 27.5511C217.403 28.307 218.878 29.1469 219.914 30.0707C220.941 30.9946 221.454 32.269 221.454 33.8921C221.454 34.9557 221.239 35.9015 220.81 36.7267C220.38 37.5529 219.792 38.2458 219.055 38.8054C218.308 39.3659 217.431 39.7923 216.413 40.0862C215.396 40.3802 214.313 40.5271 213.174 40.5271C211.279 40.5271 209.58 40.1638 208.059 39.4353C206.542 38.7077 205.312 37.7282 204.366 36.4958L207.284 33.0523C208.171 33.9204 209.104 34.606 210.075 35.11C211.046 35.6139 212.11 35.8658 213.258 35.8658C213.996 35.8658 214.64 35.7262 215.162 35.4459C215.695 35.1666 215.956 34.732 215.956 34.1441C215.956 33.6685 215.76 33.3042 215.359 33.0523C214.957 32.8003 214.425 32.5347 213.772 32.2544L211.494 31.3305C210.579 30.9663 209.758 30.5892 209.048 30.1967C208.33 29.8051 207.732 29.3568 207.247 28.8529C206.757 28.349 206.378 27.7821 206.106 27.1522C205.834 26.5223 205.698 25.802 205.698 24.9895C205.698 23.9816 205.891 23.0925 206.277 22.3229C206.663 21.5533 207.21 20.9024 207.91 20.3702C208.61 19.8389 209.44 19.4326 210.402 19.1524C211.354 18.873 212.399 18.7324 213.51 18.7324Z" fill="white"/>
<path fill-rule="evenodd" clip-rule="evenodd" d="M231.676 36.3707C232.936 36.3707 234 35.9928 234.877 35.2369C235.745 34.481 236.184 33.4878 236.184 32.2554V32.0034H231.629C229.659 32.0034 228.67 32.7036 228.67 34.1031C228.67 34.8316 228.95 35.3912 229.51 35.7828C230.07 36.1745 230.789 36.3707 231.676 36.3707ZM232.833 18.7754C234.177 18.7754 235.409 18.9644 236.529 19.3423C237.64 19.7202 238.602 20.2808 239.404 21.0221C240.207 21.7642 240.833 22.6881 241.271 23.7936C241.719 24.9001 241.934 26.1946 241.934 27.678V40.0242H236.66V38.0085C235.913 38.7927 234.989 39.408 233.888 39.8562C232.786 40.3035 231.535 40.5281 230.135 40.5281C228.987 40.5281 227.951 40.3665 227.036 40.0452C226.121 39.7238 225.347 39.2893 224.721 38.7434C224.087 38.1975 223.61 37.5466 223.284 36.7907C222.948 36.0348 222.789 35.2095 222.789 34.3131C222.789 32.4087 223.508 30.9253 224.955 29.8617C226.402 28.7982 228.371 28.266 230.863 28.266H236.184V27.3421C236.184 26.1946 235.857 25.2981 235.195 24.6545C234.541 24.0109 233.533 23.6887 232.189 23.6887C231.078 23.6887 230.079 23.9406 229.211 24.4445C228.334 24.9485 227.456 25.6487 226.57 26.5442L223.601 23.0587C226.009 20.2032 229.081 18.7754 232.833 18.7754Z" fill="white"/>
<path fill-rule="evenodd" clip-rule="evenodd" d="M244.08 40.0245H249.877V8.5293H244.08V40.0245Z" fill="white"/>
<path fill-rule="evenodd" clip-rule="evenodd" d="M262.806 23.3527C261.546 23.3527 260.463 23.7243 259.539 24.4655C258.624 25.2077 257.999 26.2366 257.653 27.5521H267.398C267.342 26.2083 266.866 25.173 265.98 24.4445C265.093 23.7169 264.038 23.3527 262.806 23.3527ZM263.021 18.7754C264.514 18.7754 265.868 19.0274 267.1 19.5313C268.332 20.0352 269.387 20.7217 270.255 21.589C271.132 22.4571 271.804 23.4787 272.271 24.6545C272.747 25.8303 272.98 27.0901 272.98 28.4339C272.98 29.0218 272.943 29.5961 272.85 30.1557C272.766 30.7162 272.682 31.1781 272.598 31.5415H257.653C258.027 32.8853 258.745 33.9077 259.8 34.607C260.855 35.3072 262.162 35.6568 263.711 35.6568C264.85 35.6568 265.905 35.4679 266.866 35.0899C267.818 34.712 268.743 34.2008 269.629 33.5572L271.991 37.4206C270.796 38.401 269.489 39.1633 268.089 39.7092C266.689 40.2552 265.167 40.5281 263.534 40.5281C261.844 40.5281 260.286 40.2479 258.857 39.6882C257.42 39.1286 256.197 38.359 255.161 37.3786C254.134 36.399 253.322 35.2515 252.734 33.9351C252.146 32.6196 251.856 31.1909 251.856 29.6518C251.856 28.1117 252.146 26.6848 252.715 25.3684C253.285 24.0529 254.078 22.9054 255.077 21.9249C256.076 20.9454 257.261 20.1758 258.624 19.6153C259.977 19.0557 261.443 18.7754 263.021 18.7754Z" fill="white"/>
<path fill-rule="evenodd" clip-rule="evenodd" d="M282.987 18.7324C286.132 18.7324 288.681 19.7823 290.632 21.8819L287.71 25.3674C287.019 24.7229 286.272 24.2336 285.451 23.8976C284.639 23.5617 283.799 23.3937 282.94 23.3937C282.259 23.3937 281.708 23.5133 281.288 23.7507C280.877 23.9889 280.672 24.3596 280.672 24.8635C280.672 25.2834 280.849 25.6194 281.204 25.8713C281.558 26.1233 282.128 26.4036 282.903 26.7112L284.966 27.5511C286.879 28.307 288.354 29.1469 289.381 30.0707C290.417 30.9946 290.93 32.269 290.93 33.8921C290.93 34.9557 290.716 35.9015 290.286 36.7267C289.857 37.5529 289.269 38.2458 288.522 38.8054C287.785 39.3659 286.898 39.7923 285.88 40.0862C284.872 40.3802 283.789 40.5271 282.641 40.5271C280.756 40.5271 279.048 40.1638 277.535 39.4353C276.014 38.7077 274.782 37.7282 273.839 36.4958L276.761 33.0523C277.647 33.9204 278.581 34.606 279.552 35.11C280.522 35.6139 281.587 35.8658 282.725 35.8658C283.472 35.8658 284.107 35.7262 284.639 35.4459C285.171 35.1666 285.432 34.732 285.432 34.1441C285.432 33.6685 285.236 33.3042 284.835 33.0523C284.434 32.8003 283.901 32.5347 283.248 32.2544L280.97 31.3305C280.056 30.9663 279.234 30.5892 278.525 30.1967C277.806 29.8051 277.199 29.3568 276.714 28.8529C276.229 28.349 275.855 27.7821 275.575 27.1522C275.304 26.5223 275.174 25.802 275.174 24.9895C275.174 23.9816 275.36 23.0925 275.752 22.3229C276.135 21.5533 276.686 20.9024 277.386 20.3702C278.086 19.8389 278.917 19.4326 279.869 19.1524C280.83 18.873 281.867 18.7324 282.987 18.7324Z" fill="white"/>
<path opacity="0.5" d="M4.39537 5.93283C-0.482193 10.7031 -1.30657 17.9592 1.92224 23.5692C2.40313 24.409 2.95271 25.1817 3.60534 25.9543C5.49454 27.3652 8.20811 27.2309 9.95991 25.5512L27.8558 8.0492L25.7261 5.96643C19.8524 0.154823 10.3034 0.154822 4.39537 5.93283Z" fill="white"/>
<path d="M29.8148 6.10391L9.96102 25.5207C8.24357 27.2004 5.52999 27.3348 3.60645 25.9238C3.64079 25.9574 3.67514 26.0246 3.74384 26.0582C3.81254 26.159 3.91559 26.2262 3.98429 26.327C4.12168 26.4613 4.25908 26.5957 4.39647 26.7637L25.4524 47.3562C26.7921 48.6664 28.956 48.6664 30.2957 47.3562L51.3516 26.7637C57.294 20.9521 57.2253 11.4788 51.1799 5.73439C45.2031 0.124336 35.6884 0.359488 29.8148 6.10391ZM43.4857 19.1044C41.94 20.6161 39.3982 20.6161 37.8524 19.1044C36.3067 17.5928 36.3067 15.1069 37.8524 13.5952C39.3982 12.0835 41.94 12.0835 43.4857 13.5952C45.0314 15.1069 45.0314 17.5928 43.4857 19.1044Z" fill="white"/>
</g>
<defs>
<clipPath id="clip0_1_4245">
<rect width="292.364" height="48" fill="white" transform="translate(0 0.935547)"/>
</clipPath>
</defs>
</svg>
